<svg width="20" height="20" viewBox="0 0 20 20" fill="none" xmlns="http://www.w3.org/2000/svg">
<path d="M10 3.75V9.75H14.5M19 9.75C19 10.9319 18.7672 12.1022 18.3149 13.1942C17.8626 14.2861 17.1997 15.2782 16.364 16.114C15.5282 16.9497 14.5361 17.6126 13.4442 18.0649C12.3522 18.5172 11.1819 18.75 10 18.75C8.8181 18.75 7.64778 18.5172 6.55585 18.0649C5.46392 17.6126 4.47177 16.9497 3.63604 16.114C2.80031 15.2782 2.13738 14.2861 1.68508 13.1942C1.23279 12.1022 1 10.9319 1 9.75C1 7.36305 1.94821 5.07387 3.63604 3.38604C5.32387 1.69821 7.61305 0.75 10 0.75C12.3869 0.75 14.6761 1.69821 16.364 3.38604C18.0518 5.07387 19 7.36305 19 9.75Z" stroke="#7C90A0" stroke-width="1.5" stroke-linecap="round" stroke-linejoin="round"/>
</svg>
