<svg width="14" height="14" viewBox="0 0 14 14" fill="none" xmlns="http://www.w3.org/2000/svg">
<path d="M10.2727 4.27285V2.63649C10.2727 2.2025 10.1003 1.78628 9.79345 1.4794C9.48657 1.17252 9.07035 1.00012 8.63636 1.00012H2.63636C2.20237 1.00012 1.78616 1.17252 1.47928 1.4794C1.1724 1.78628 1 2.2025 1 2.63649V8.63649C1 9.07048 1.1724 9.48669 1.47928 9.79357C1.78616 10.1004 2.20237 10.2729 2.63636 10.2729H4.27273M10.2727 4.27285H11.3636C11.7976 4.27285 12.2138 4.44525 12.5207 4.75213C12.8276 5.05901 13 5.47522 13 5.90921V11.3638C13 11.7977 12.8276 12.214 12.5207 12.5208C12.2138 12.8277 11.7976 13.0001 11.3636 13.0001H5.90909C5.4751 13.0001 5.05888 12.8277 4.75201 12.5208C4.44513 12.214 4.27273 11.7977 4.27273 11.3638V10.2729M10.2727 4.27285H5.90909C5.4751 4.27285 5.05888 4.44525 4.75201 4.75213C4.44513 5.05901 4.27273 5.47522 4.27273 5.90921V10.2729" stroke="white" stroke-linecap="round" stroke-linejoin="round"/>
</svg>
