<svg width="12" height="11" viewBox="0 0 12 11" fill="none" xmlns="http://www.w3.org/2000/svg">
<path fill-rule="evenodd" clip-rule="evenodd" d="M0.5 5.57639C0.5 5.44379 0.552678 5.31661 0.646447 5.22284C0.740215 5.12907 0.867392 5.07639 1 5.07639H9.79333L6.14667 1.42973C6.05835 1.33495 6.01026 1.20958 6.01255 1.08005C6.01484 0.950513 6.06731 0.826922 6.15892 0.735314C6.25053 0.643705 6.37412 0.591231 6.50365 0.588945C6.63319 0.58666 6.75855 0.634742 6.85333 0.723062L11.3533 5.22306C11.447 5.31681 11.4996 5.44389 11.4996 5.57639C11.4996 5.7089 11.447 5.83598 11.3533 5.92973L6.85333 10.4297C6.80756 10.4789 6.75236 10.5183 6.69103 10.5456C6.62969 10.5729 6.56348 10.5876 6.49635 10.5888C6.42921 10.59 6.36253 10.5776 6.30027 10.5525C6.23801 10.5273 6.18145 10.4899 6.13398 10.4424C6.0865 10.3949 6.04907 10.3384 6.02392 10.2761C5.99877 10.2139 5.98642 10.1472 5.98761 10.08C5.98879 10.0129 6.00348 9.9467 6.03081 9.88537C6.05814 9.82404 6.09754 9.76884 6.14667 9.72306L9.79333 6.07639H1C0.867392 6.07639 0.740215 6.02372 0.646447 5.92995C0.552678 5.83618 0.5 5.709 0.5 5.57639Z" fill="black"/>
</svg>
