<svg width="8" height="16" viewBox="0 0 8 16" fill="none" xmlns="http://www.w3.org/2000/svg">
<path fill-rule="evenodd" clip-rule="evenodd" d="M7.79487 7.52906C7.91967 7.65401 7.98977 7.8234 7.98977 8C7.98977 8.17661 7.91967 8.34599 7.79487 8.47095L1.13052 15.1353C1.00419 15.253 0.837095 15.3171 0.664444 15.3141C0.491792 15.311 0.327062 15.2411 0.20496 15.119C0.0828573 14.9969 0.0129157 14.8321 0.00986945 14.6595C0.00682321 14.4868 0.0709101 14.3197 0.188629 14.1934L6.38202 8L0.188629 1.80661C0.0709101 1.68028 0.00682321 1.51318 0.00986945 1.34053C0.0129157 1.16788 0.0828573 1.00315 0.20496 0.881046C0.327062 0.758944 0.491792 0.689002 0.664444 0.685956C0.837095 0.68291 1.00419 0.746997 1.13052 0.864716L7.79487 7.52906Z" fill="#121E26" fill-opacity="0.85"/>
</svg>
