<svg width="8" height="16" viewBox="0 0 8 16" fill="none" xmlns="http://www.w3.org/2000/svg">
<path fill-rule="evenodd" clip-rule="evenodd" d="M0.205135 8.47094C0.0803343 8.34598 0.010235 8.1766 0.010235 7.99999C0.010235 7.82339 0.0803344 7.654 0.205136 7.52905L6.86948 0.864705C6.99581 0.746986 7.16291 0.682899 7.33556 0.685946C7.50821 0.688992 7.67294 0.758934 7.79504 0.881037C7.91714 1.00314 7.98709 1.16787 7.99013 1.34052C7.99318 1.51317 7.92909 1.68027 7.81137 1.8066L1.61798 7.99999L7.81137 14.1934C7.92909 14.3197 7.99318 14.4868 7.99013 14.6595C7.98708 14.8321 7.91714 14.9969 7.79504 15.119C7.67294 15.2411 7.50821 15.311 7.33556 15.314C7.1629 15.3171 6.99581 15.253 6.86948 15.1353L0.205135 8.47094Z" fill="#121E26" fill-opacity="0.85"/>
</svg>
