<svg width="18" height="14" viewBox="0 0 18 14" fill="none" xmlns="http://www.w3.org/2000/svg">
<path d="M5.62222 2.02218H17M5.62222 6.99996H17M5.62222 11.9777H17M1.35556 2.02218H1.36219V2.02977H1.35556V2.02218ZM1.71111 2.02218C1.71111 2.11648 1.67365 2.20692 1.60697 2.2736C1.54029 2.34028 1.44985 2.37774 1.35556 2.37774C1.26126 2.37774 1.17082 2.34028 1.10414 2.2736C1.03746 2.20692 1 2.11648 1 2.02218C1 1.92788 1.03746 1.83745 1.10414 1.77077C1.17082 1.70409 1.26126 1.66663 1.35556 1.66663C1.44985 1.66663 1.54029 1.70409 1.60697 1.77077C1.67365 1.83745 1.71111 1.92788 1.71111 2.02218ZM1.35556 6.99996H1.36219V7.00754H1.35556V6.99996ZM1.71111 6.99996C1.71111 7.09426 1.67365 7.1847 1.60697 7.25137C1.54029 7.31805 1.44985 7.35551 1.35556 7.35551C1.26126 7.35551 1.17082 7.31805 1.10414 7.25137C1.03746 7.1847 1 7.09426 1 6.99996C1 6.90566 1.03746 6.81522 1.10414 6.74854C1.17082 6.68186 1.26126 6.6444 1.35556 6.6444C1.44985 6.6444 1.54029 6.68186 1.60697 6.74854C1.67365 6.81522 1.71111 6.90566 1.71111 6.99996ZM1.35556 11.9777H1.36219V11.9853H1.35556V11.9777ZM1.71111 11.9777C1.71111 12.072 1.67365 12.1625 1.60697 12.2292C1.54029 12.2958 1.44985 12.3333 1.35556 12.3333C1.26126 12.3333 1.17082 12.2958 1.10414 12.2292C1.03746 12.1625 1 12.072 1 11.9777C1 11.8834 1.03746 11.793 1.10414 11.7263C1.17082 11.6596 1.26126 11.6222 1.35556 11.6222C1.44985 11.6222 1.54029 11.6596 1.60697 11.7263C1.67365 11.793 1.71111 11.8834 1.71111 11.9777Z" stroke="#3E6680" stroke-width="1.5" stroke-linecap="round" stroke-linejoin="round"/>
</svg>
