<svg width="17" height="21" viewBox="0 0 17 21" fill="none" xmlns="http://www.w3.org/2000/svg">
<path d="M11.5 8.25C11.5 9.04565 11.1839 9.80871 10.6213 10.3713C10.0587 10.9339 9.29565 11.25 8.5 11.25C7.70435 11.25 6.94129 10.9339 6.37868 10.3713C5.81607 9.80871 5.5 9.04565 5.5 8.25C5.5 7.45435 5.81607 6.69129 6.37868 6.12868C6.94129 5.56607 7.70435 5.25 8.5 5.25C9.29565 5.25 10.0587 5.56607 10.6213 6.12868C11.1839 6.69129 11.5 7.45435 11.5 8.25Z" stroke="#7C90A0" stroke-width="1.5" stroke-linecap="round" stroke-linejoin="round"/>
<path d="M16 8.25C16 15.392 8.5 19.5 8.5 19.5C8.5 19.5 1 15.392 1 8.25C1 6.26088 1.79018 4.35322 3.1967 2.9467C4.60322 1.54018 6.51088 0.75 8.5 0.75C10.4891 0.75 12.3968 1.54018 13.8033 2.9467C15.2098 4.35322 16 6.26088 16 8.25Z" stroke="#7C90A0" stroke-width="1.5" stroke-linecap="round" stroke-linejoin="round"/>
</svg>
