<svg width="26" height="23" viewBox="0 0 26 23" fill="none" xmlns="http://www.w3.org/2000/svg">
<path d="M13.0066 17.8319V8.3881M13.0066 8.3881L16.6991 12.5853M13.0066 8.3881L9.31411 12.5853M6.54474 22.0291C5.22706 22.0307 3.95203 21.4983 2.94863 20.5275C1.94524 19.5566 1.27921 18.2109 1.07016 16.7321C0.861111 15.2533 1.12274 13.7381 1.80805 12.4588C2.49337 11.1796 3.55748 10.2199 4.80928 9.7522C4.48766 7.87907 4.82006 5.93719 5.73607 4.33778C6.65208 2.73838 8.07979 1.60703 9.71685 1.18333C11.3539 0.759625 13.0718 1.07683 14.5067 2.06778C15.9416 3.05872 16.9808 4.64559 17.4043 6.49234C18.0591 6.25027 18.7605 6.22115 19.4291 6.40826C20.0977 6.59537 20.7069 6.99126 21.188 7.55122C21.6691 8.11119 22.0029 8.8129 22.1516 9.57712C22.3004 10.3413 22.2582 11.1376 22.0298 11.876C23.0374 12.3135 23.8785 13.1381 24.4072 14.2068C24.9359 15.2755 25.1188 16.5208 24.9242 17.7268C24.7296 18.9327 24.1698 20.0232 23.3419 20.8091C22.514 21.5949 21.4702 22.0266 20.3915 22.0291H6.54474Z" stroke="#7C90A0" stroke-width="1.2" stroke-linecap="round" stroke-linejoin="round"/>
</svg>
